<svg width="1747" height="151" viewBox="0 0 1747 151" fill="none" xmlns="http://www.w3.org/2000/svg">
<path d="M0.642045 148V2.54545H98.6534V27.9006H31.3949V62.5597H93.6108V87.9148H31.3949V122.645H98.9375V148H0.642045ZM151.938 2.54545L181.271 52.1193H182.407L211.881 2.54545H246.612L202.222 75.2727L247.606 148H212.237L182.407 98.3551H181.271L151.441 148H116.214L161.739 75.2727L117.066 2.54545H151.938ZM387.574 53.4688H356.466C355.898 49.4441 354.738 45.8693 352.986 42.7443C351.234 39.572 348.985 36.8731 346.239 34.6477C343.492 32.4223 340.32 30.7178 336.722 29.5341C333.17 28.3504 329.312 27.7585 325.145 27.7585C317.616 27.7585 311.059 29.6288 305.472 33.3693C299.884 37.0625 295.552 42.4602 292.474 49.5625C289.397 56.6174 287.858 65.1875 287.858 75.2727C287.858 85.642 289.397 94.3542 292.474 101.409C295.599 108.464 299.955 113.791 305.543 117.389C311.13 120.988 317.593 122.787 324.932 122.787C329.051 122.787 332.863 122.242 336.366 121.153C339.918 120.064 343.066 118.478 345.812 116.395C348.559 114.264 350.831 111.684 352.631 108.653C354.477 105.623 355.756 102.167 356.466 98.2841L387.574 98.4261C386.769 105.102 384.757 111.542 381.537 117.744C378.365 123.9 374.08 129.416 368.682 134.293C363.331 139.122 356.939 142.957 349.506 145.798C342.119 148.592 333.762 149.989 324.435 149.989C311.461 149.989 299.861 147.053 289.634 141.182C279.454 135.311 271.404 126.812 265.486 115.685C259.615 104.558 256.679 91.0871 256.679 75.2727C256.679 59.411 259.662 45.9167 265.628 34.7898C271.594 23.6629 279.69 15.1875 289.918 9.36364C300.145 3.49242 311.651 0.556813 324.435 0.556813C332.863 0.556813 340.675 1.74053 347.872 4.10795C355.116 6.47538 361.532 9.93181 367.119 14.4773C372.706 18.9754 377.252 24.4915 380.756 31.0256C384.307 37.5597 386.58 45.0407 387.574 53.4688ZM409.626 148V2.54545H440.379V122.645H502.737V148H409.626ZM612.947 2.54545H643.7V97.0057C643.7 107.612 641.166 116.892 636.1 124.847C631.081 132.801 624.05 139.004 615.006 143.455C605.963 147.858 595.428 150.06 583.401 150.06C571.327 150.06 560.769 147.858 551.725 143.455C542.682 139.004 535.65 132.801 530.631 124.847C525.612 116.892 523.103 107.612 523.103 97.0057V2.54545H553.856V94.3778C553.856 99.9176 555.063 104.842 557.478 109.151C559.94 113.459 563.397 116.845 567.847 119.307C572.298 121.769 577.483 123 583.401 123C589.367 123 594.552 121.769 598.955 119.307C603.406 116.845 606.839 113.459 609.254 109.151C611.716 104.842 612.947 99.9176 612.947 94.3778V2.54545ZM747.908 44.3778C747.339 38.6487 744.901 34.1979 740.592 31.0256C736.284 27.8532 730.436 26.267 723.05 26.267C718.031 26.267 713.793 26.9773 710.337 28.3977C706.88 29.7708 704.229 31.6884 702.382 34.1506C700.583 36.6127 699.683 39.4062 699.683 42.5312C699.589 45.1354 700.133 47.4081 701.317 49.3494C702.548 51.2907 704.229 52.9716 706.359 54.392C708.49 55.7651 710.952 56.9725 713.746 58.0142C716.539 59.0085 719.522 59.8608 722.695 60.571L735.763 63.696C742.107 65.1165 747.931 67.0104 753.234 69.3778C758.537 71.7453 763.13 74.6572 767.013 78.1136C770.895 81.5701 773.902 85.642 776.033 90.3295C778.211 95.017 779.323 100.391 779.371 106.452C779.323 115.353 777.051 123.071 772.553 129.605C768.102 136.092 761.662 141.134 753.234 144.733C744.854 148.284 734.745 150.06 722.908 150.06C711.165 150.06 700.938 148.26 692.226 144.662C683.561 141.063 676.79 135.737 671.913 128.682C667.084 121.58 664.551 112.796 664.314 102.332H694.072C694.404 107.209 695.801 111.281 698.263 114.548C700.772 117.768 704.11 120.206 708.277 121.864C712.491 123.473 717.25 124.278 722.553 124.278C727.761 124.278 732.283 123.521 736.118 122.006C740 120.491 743.007 118.384 745.138 115.685C747.268 112.986 748.334 109.884 748.334 106.381C748.334 103.114 747.363 100.367 745.422 98.142C743.528 95.9167 740.734 94.0227 737.041 92.4602C733.395 90.8977 728.921 89.4773 723.618 88.1989L707.78 84.2216C695.517 81.2386 685.834 76.5748 678.732 70.2301C671.629 63.8854 668.102 55.339 668.149 44.5909C668.102 35.7841 670.446 28.09 675.18 21.5085C679.963 14.9271 686.52 9.78977 694.854 6.09659C703.187 2.4034 712.657 0.556813 723.263 0.556813C734.058 0.556813 743.481 2.4034 751.53 6.09659C759.626 9.78977 765.924 14.9271 770.422 21.5085C774.92 28.09 777.24 35.7131 777.382 44.3778H747.908ZM830.809 2.54545V148H800.056V2.54545H830.809ZM882.389 2.54545L917.545 113.057H918.895L954.122 2.54545H988.213L938.071 148H898.44L848.227 2.54545H882.389ZM1005.72 148V2.54545H1103.73V27.9006H1036.47V62.5597H1098.69V87.9148H1036.47V122.645H1104.02V148H1005.72ZM1253.38 44.3778C1252.81 38.6487 1250.37 34.1979 1246.06 31.0256C1241.75 27.8532 1235.9 26.267 1228.52 26.267C1223.5 26.267 1219.26 26.9773 1215.81 28.3977C1212.35 29.7708 1209.7 31.6884 1207.85 34.1506C1206.05 36.6127 1205.15 39.4062 1205.15 42.5312C1205.06 45.1354 1205.6 47.4081 1206.79 49.3494C1208.02 51.2907 1209.7 52.9716 1211.83 54.392C1213.96 55.7651 1216.42 56.9725 1219.21 58.0142C1222.01 59.0085 1224.99 59.8608 1228.16 60.571L1241.23 63.696C1247.58 65.1165 1253.4 67.0104 1258.7 69.3778C1264.01 71.7453 1268.6 74.6572 1272.48 78.1136C1276.36 81.5701 1279.37 85.642 1281.5 90.3295C1283.68 95.017 1284.79 100.391 1284.84 106.452C1284.79 115.353 1282.52 123.071 1278.02 129.605C1273.57 136.092 1267.13 141.134 1258.7 144.733C1250.32 148.284 1240.21 150.06 1228.38 150.06C1216.63 150.06 1206.41 148.26 1197.69 144.662C1189.03 141.063 1182.26 135.737 1177.38 128.682C1172.55 121.58 1170.02 112.796 1169.78 102.332H1199.54C1199.87 107.209 1201.27 111.281 1203.73 114.548C1206.24 117.768 1209.58 120.206 1213.75 121.864C1217.96 123.473 1222.72 124.278 1228.02 124.278C1233.23 124.278 1237.75 123.521 1241.59 122.006C1245.47 120.491 1248.48 118.384 1250.61 115.685C1252.74 112.986 1253.8 109.884 1253.8 106.381C1253.8 103.114 1252.83 100.367 1250.89 98.142C1249 95.9167 1246.2 94.0227 1242.51 92.4602C1238.86 90.8977 1234.39 89.4773 1229.09 88.1989L1213.25 84.2216C1200.99 81.2386 1191.3 76.5748 1184.2 70.2301C1177.1 63.8854 1173.57 55.339 1173.62 44.5909C1173.57 35.7841 1175.91 28.09 1180.65 21.5085C1185.43 14.9271 1191.99 9.78977 1200.32 6.09659C1208.66 2.4034 1218.13 0.556813 1228.73 0.556813C1239.53 0.556813 1248.95 2.4034 1257 6.09659C1265.1 9.78977 1271.39 14.9271 1275.89 21.5085C1280.39 28.09 1282.71 35.7131 1282.85 44.3778H1253.38ZM1299.99 27.9006V2.54545H1419.45V27.9006H1374.91V148H1344.52V27.9006H1299.99ZM1566.14 75.2727C1566.14 91.1345 1563.14 104.629 1557.12 115.756C1551.16 126.883 1543.01 135.382 1532.69 141.253C1522.42 147.077 1510.86 149.989 1498.03 149.989C1485.11 149.989 1473.51 147.053 1463.23 141.182C1452.96 135.311 1444.84 126.812 1438.87 115.685C1432.9 104.558 1429.92 91.0871 1429.92 75.2727C1429.92 59.411 1432.9 45.9167 1438.87 34.7898C1444.84 23.6629 1452.96 15.1875 1463.23 9.36364C1473.51 3.49242 1485.11 0.556813 1498.03 0.556813C1510.86 0.556813 1522.42 3.49242 1532.69 9.36364C1543.01 15.1875 1551.16 23.6629 1557.12 34.7898C1563.14 45.9167 1566.14 59.411 1566.14 75.2727ZM1534.96 75.2727C1534.96 64.9981 1533.42 56.3333 1530.35 49.2784C1527.32 42.2235 1523.03 36.8731 1517.49 33.2273C1511.95 29.5814 1505.47 27.7585 1498.03 27.7585C1490.6 27.7585 1484.11 29.5814 1478.57 33.2273C1473.03 36.8731 1468.72 42.2235 1465.65 49.2784C1462.62 56.3333 1461.1 64.9981 1461.1 75.2727C1461.1 85.5473 1462.62 94.2121 1465.65 101.267C1468.72 108.322 1473.03 113.672 1478.57 117.318C1484.11 120.964 1490.6 122.787 1498.03 122.787C1505.47 122.787 1511.95 120.964 1517.49 117.318C1523.03 113.672 1527.32 108.322 1530.35 101.267C1533.42 94.2121 1534.96 85.5473 1534.96 75.2727ZM1588.92 2.54545H1626.85L1666.91 100.273H1668.61L1708.67 2.54545H1746.59V148H1716.76V53.3267H1715.56L1677.91 147.29H1657.6L1619.96 52.9716H1618.75V148H1588.92V2.54545Z" fill="#418699"/>
</svg>
